<svg xmlns="http://www.w3.org/2000/svg" width="46" height="56" viewBox="0 0 46 56">
    <g fill="none" fill-rule="evenodd">
        <path fill="#4A90E2" d="M21.673 12.84c2.39-1.384 6.263-1.385 8.654 0l11.346 6.57C44.063 20.796 46 24.16 46 26.916v13.17c0 2.76-1.936 6.12-4.327 7.504l-11.346 6.57c-2.39 1.385-6.263 1.386-8.654 0l-11.346-6.57C7.937 46.205 6 42.841 6 40.085v-13.17c0-2.76 1.936-6.12 4.327-7.504l11.346-6.57z" opacity=".257"/>
        <path fill="#4A90E2" d="M15.673 12.84c2.39-1.384 6.263-1.385 8.654 0l11.346 6.57C38.063 20.796 40 24.16 40 26.916v13.17c0 2.76-1.936 6.12-4.327 7.504l-11.346 6.57c-2.39 1.385-6.263 1.386-8.654 0L4.327 47.59C1.937 46.205 0 42.841 0 40.085v-13.17c0-2.76 1.936-6.12 4.327-7.504l11.346-6.57z" opacity=".257"/>
        <path fill="#4A90E2" d="M21.673 1.84c2.39-1.384 6.263-1.385 8.654 0l11.346 6.57C44.063 9.796 46 13.16 46 15.916v13.17c0 2.76-1.936 6.12-4.327 7.504l-11.346 6.57c-2.39 1.385-6.263 1.386-8.654 0l-11.346-6.57C7.937 35.205 6 31.841 6 29.085v-13.17c0-2.76 1.936-6.12 4.327-7.504l11.346-6.57z" opacity=".257"/>
        <path fill="#4A90E2" d="M15.673 1.84c2.39-1.384 6.263-1.385 8.654 0l11.346 6.57C38.063 9.796 40 13.16 40 15.916v13.17c0 2.76-1.936 6.12-4.327 7.504l-11.346 6.57c-2.39 1.385-6.263 1.386-8.654 0L4.327 36.59C1.937 35.205 0 31.841 0 29.085v-13.17c0-2.76 1.936-6.12 4.327-7.504l11.346-6.57z" opacity=".257"/>
        <path fill="#4A90E2" d="M18.673 7.84c2.39-1.384 6.263-1.385 8.654 0l11.346 6.57C41.063 15.796 43 19.16 43 21.916v13.17c0 2.76-1.936 6.12-4.327 7.504l-11.346 6.57c-2.39 1.385-6.263 1.386-8.654 0L7.327 42.59C4.937 41.205 3 37.841 3 35.085v-13.17c0-2.76 1.936-6.12 4.327-7.504l11.346-6.57z"/>
        <path fill="#FFF" d="M15.673 26.248c0-.207-.103-.37-.308-.49-.205-.118-.534-.225-.987-.319-1.508-.316-2.262-.957-2.262-1.921 0-.563.234-1.033.7-1.41.467-.377 1.078-.565 1.831-.565.805 0 1.449.19 1.931.568.483.38.724.871.724 1.477h-1.694a.82.82 0 0 0-.234-.6c-.156-.159-.4-.238-.732-.238-.286 0-.506.064-.663.193a.61.61 0 0 0-.234.493c0 .187.089.338.267.454.177.115.477.214.9.298.421.084.776.18 1.066.285.894.328 1.341.896 1.341 1.705 0 .578-.248 1.046-.744 1.403s-1.137.536-1.922.536c-.53 0-1.003-.095-1.415-.284a2.374 2.374 0 0 1-.97-.78 1.81 1.81 0 0 1-.351-1.069h1.605c.016.301.127.532.334.692.207.16.485.24.832.24.325 0 .57-.062.736-.185a.574.574 0 0 0 .249-.483zm4.389-3.896c.449-.54 1.013-.809 1.693-.809 1.375 0 2.072.799 2.092 2.396V28h-1.694v-4.014c0-.363-.078-.632-.234-.805-.156-.174-.416-.261-.78-.261-.495 0-.855.191-1.077.574V28h-1.694v-9h1.694v3.352zM26.912 28h-1.7v-6.34h1.7V28zm-1.8-7.98c0-.254.085-.463.255-.627.17-.164.402-.247.695-.247.289 0 .52.083.69.247a.83.83 0 0 1 .259.627.831.831 0 0 1-.261.632c-.174.164-.403.246-.688.246-.286 0-.515-.082-.689-.246a.831.831 0 0 1-.26-.632zm8.9 4.869c0 .976-.221 1.758-.664 2.346-.444.588-1.042.882-1.796.882-.64 0-1.158-.222-1.553-.668v2.988h-1.693V21.66h1.57l.059.621c.41-.492.945-.738 1.605-.738.781 0 1.389.289 1.822.867.434.578.65 1.375.65 2.39v.089zm-1.693-.123c0-.59-.104-1.045-.313-1.366-.21-.32-.513-.48-.911-.48-.532 0-.897.203-1.096.61v2.595c.207.418.576.627 1.107.627.809 0 1.213-.662 1.213-1.986zM14.835 37.232c.387 0 .725-.117 1.014-.351.289-.235.449-.527.48-.879h1.025c-.019.363-.144.709-.375 1.037a2.47 2.47 0 0 1-.922.785 2.663 2.663 0 0 1-1.222.293c-.863 0-1.55-.288-2.06-.864-.51-.576-.764-1.364-.764-2.364v-.182c0-.617.113-1.166.34-1.646.226-.48.551-.854.975-1.12.424-.265.925-.398 1.503-.398.711 0 1.302.213 1.773.639.47.425.721.978.752 1.658H16.33a1.494 1.494 0 0 0-.466-1.01 1.45 1.45 0 0 0-1.034-.396c-.55 0-.977.198-1.28.594-.303.397-.454.97-.454 1.72v.205c0 .73.15 1.293.45 1.688.302.394.731.591 1.29.591zm7.652.768c-.062-.125-.113-.348-.152-.668-.504.523-1.106.785-1.805.785-.625 0-1.137-.177-1.538-.53-.4-.354-.6-.802-.6-1.345 0-.66.25-1.173.753-1.538.501-.365 1.208-.548 2.118-.548h1.054v-.498c0-.379-.113-.68-.34-.905-.226-.225-.56-.337-1.001-.337-.387 0-.711.098-.973.293-.262.195-.393.432-.393.709h-1.09c0-.316.113-.622.337-.917a2.3 2.3 0 0 1 .914-.7 3.075 3.075 0 0 1 1.269-.258c.73 0 1.303.183 1.717.548.414.365.629.868.644 1.509v2.918c0 .582.075 1.044.223 1.388V38h-1.137zm-1.799-.826c.34 0 .663-.088.967-.264.305-.176.526-.404.662-.685v-1.301h-.85c-1.327 0-1.991.388-1.991 1.166 0 .34.113.605.34.797.226.191.517.287.872.287zm7.477-4.541a3.248 3.248 0 0 0-.533-.041c-.711 0-1.194.303-1.447.908V38H25.1v-6.34h1.054l.018.733c.355-.567.86-.85 1.512-.85.21 0 .37.027.48.082v1.008zm4.688 3.685c0-.293-.11-.52-.332-.682-.22-.162-.605-.302-1.154-.42-.549-.116-.984-.257-1.306-.421-.323-.164-.561-.36-.715-.586a1.402 1.402 0 0 1-.232-.809c0-.52.22-.959.66-1.318.439-.36 1-.539 1.684-.539.719 0 1.302.186 1.749.557.447.37.67.845.67 1.423h-1.089c0-.296-.126-.552-.378-.767-.252-.215-.57-.322-.952-.322-.395 0-.703.086-.926.257a.812.812 0 0 0-.334.674c0 .262.104.46.31.592.208.133.582.26 1.123.38.54.122.98.267 1.315.434.336.168.585.37.747.607.162.236.244.524.244.864 0 .567-.227 1.02-.68 1.362-.453.342-1.041.513-1.764.513-.508 0-.957-.09-1.347-.27-.391-.179-.697-.43-.917-.752a1.815 1.815 0 0 1-.332-1.046h1.084c.02.363.165.651.437.864.271.213.63.32 1.075.32.41 0 .74-.084.987-.25.249-.166.373-.387.373-.665z"/>
    </g>
</svg>
